<?xml version="1.0" standalone="no"?>
<!DOCTYPE svg PUBLIC "-//W3C//DTD SVG 20010904//EN" "http://www.w3.org/TR/2001/REC-SVG-20010904/DTD/svg10.dtd">
<svg version="1.0" xmlns="http://www.w3.org/2000/svg"
    width="346.000000pt" height="330.000000pt" viewBox="0 0 346.000000 330.000000"
    preserveAspectRatio="xMidYMid meet">

    <g transform="translate(0.000000,330.000000) scale(0.100000,-0.100000)"
        fill="#000000" stroke="none">
        <path
            d="M391 3089 c-73 -22 -133 -73 -173 -149 l-23 -45 0 -1250 0 -1250 24
-45 c32 -61 67 -97 126 -128 l50 -27 1340 0 1340 0 47 23 c63 31 124 102 143
165 13 44 15 217 15 1268 0 1200 0 1219 -20 1273 -27 72 -98 139 -171 160 -47
14 -197 16 -1358 15 -808 0 -1319 -4 -1340 -10z m925 -692 c61 -31 117 -87
147 -147 17 -36 22 -62 22 -130 0 -84 -1 -88 -89 -305 -49 -121 -98 -232 -108
-246 -23 -35 -91 -62 -132 -53 -76 16 -84 30 -206 338 -81 206 -82 210 -78
280 9 136 94 243 228 287 49 16 162 4 216 -24z m1099 5 c55 -27 118 -98 140
-155 22 -59 17 -155 -13 -213 -44 -87 -152 -154 -247 -154 -103 0 -213 74
-255 172 -33 78 -25 177 20 248 35 54 83 92 147 116 52 20 157 13 208 -14z
m-31 -746 c25 -24 53 -83 126 -266 101 -254 110 -298 81 -398 -17 -59 -85
-139 -151 -176 -50 -28 -63 -31 -145 -31 -74 0 -97 4 -133 23 -66 35 -119 88
-149 150 -23 47 -28 70 -27 132 0 71 5 87 94 304 52 126 105 242 118 257 45
55 132 57 186 5z m-1126 -341 c69 -21 129 -69 166 -135 26 -47 30 -64 30 -125
-1 -82 -17 -126 -70 -185 -60 -66 -104 -85 -204 -85 -75 0 -91 3 -131 27 -96
57 -141 134 -143 243 0 61 4 78 30 125 38 66 86 107 156 131 65 23 100 23 166
4z" />
        <path
            d="M1082 2318 c-86 -42 -141 -140 -129 -231 3 -24 36 -119 72 -212 87
-226 96 -245 116 -256 28 -15 75 -10 91 9 26 31 178 438 178 478 0 65 -22 117
-71 166 -70 70 -170 88 -257 46z" />
        <path
            d="M2222 2339 c-75 -30 -122 -99 -122 -182 0 -64 14 -98 57 -139 106
-101 276 -62 328 74 48 127 -49 258 -190 257 -27 0 -61 -4 -73 -10z" />
        <path
            d="M2257 1588 c-9 -7 -56 -114 -103 -238 -76 -200 -85 -230 -81 -272 15
-123 109 -208 229 -208 134 1 238 111 226 242 -5 57 -148 440 -176 471 -18 20
-71 23 -95 5z" />
        <path
            d="M1116 1235 c-89 -31 -149 -138 -127 -223 25 -93 101 -152 193 -152
94 0 166 49 194 132 26 78 5 149 -60 206 -57 50 -128 63 -200 37z" />
    </g>
</svg>